<?xml version="1.0" encoding="UTF-8" standalone="no"?>
<svg xmlns:dc="http://purl.org/dc/elements/1.1/" xmlns:cc="http://creativecommons.org/ns#" xmlns:rdf="http://www.w3.org/1999/02/22-rdf-syntax-ns#" xmlns:svg="http://www.w3.org/2000/svg" xmlns="http://www.w3.org/2000/svg" viewBox="0 0 135.01334 135.01334" height="135.01334" width="135.01334" xml:space="preserve" id="svg2" version="1.1"><metadata id="metadata8"><rdf:rdf><cc:work rdf:about=""><dc:format>image/svg+xml</dc:format>
                <dc:type rdf:resource="http://purl.org/dc/dcmitype/StillImage"></dc:type>
            </cc:work></rdf:rdf></metadata>
    <defs id="defs6"><clipPath id="clipPath18" clipPathUnits="userSpaceOnUse"><path id="path16" d="M 0,101.26 H 101.26 V 0 H 0 Z"></path></clipPath></defs>
    <g transform="matrix(1.3333333,0,0,-1.3333333,0,135.01333)" id="g10"><g id="g12"><g clip-path="url(#clipPath18)" id="g14"><g transform="translate(45.3604,16.63)" id="g20"><path id="path22" style="fill:rgb(234, 142, 98);fill-opacity:1;fill-rule:nonzero;stroke:none" d="m 0,0 c -0.4,-0.54 -1.2,-0.61 -1.83,-0.18 l -32.311,22.41 c -0.759,0.53 -0.939,1.57 -0.359,2.15 l 10.449,10.45 c 0.5,0.5 1.381,0.44 1.961,-0.14 l 17.14,-17.3 c 0.679,-0.68 1.739,-0.63 2.149,0.12 l 27.59,49.77 c 0.36,0.65 1.231,0.79 1.92,0.31 l 14.73,-10.23 c 0.71,-0.49 0.93,-1.43 0.471,-2.03 z m 5.27,84.63 c -27.96,0 -50.63,-22.67 -50.63,-50.63 0,-27.96 22.67,-50.63 50.63,-50.63 27.959,0 50.629,22.67 50.629,50.63 0,27.96 -22.67,50.63 -50.629,50.63"></path></g></g></g></g>
</svg>